<?xml version="1.0" encoding="utf-8"?>
<!-- Generator: Adobe Illustrator 23.0.3, SVG Export Plug-In . SVG Version: 6.00 Build 0)  -->
<svg version="1.1" id="Слой_1" xmlns="http://www.w3.org/2000/svg" xmlns:xlink="http://www.w3.org/1999/xlink" x="0px" y="0px"
	 viewBox="0 0 117 117" style="enable-background:new 0 0 117 117;" xml:space="preserve">
<style type="text/css">
	.st0{fill:url(#SVGID_1_);}
	.st1{fill:#C6C6C6;}
	.st2{fill:#FE2525;}
</style>
<g transform="translate(-181.5,-121.5)">
	<g>
		
			<radialGradient id="SVGID_1_" cx="423.625" cy="60.5625" r="58.5" gradientTransform="matrix(1 0 0 -1 -181.5 239.5)" gradientUnits="userSpaceOnUse">
			<stop  offset="0" style="stop-color:#191919"/>
			<stop  offset="1" style="stop-color:#111111"/>
		</radialGradient>
		<path class="st0" d="M181.5,238.5v-117h117v117H181.5z"/>
		<path class="st1" d="M236.5,214.3c-14.6,0-20.3-2.5-20.5-2.6l-0.6-0.3l-0.2-0.6c-0.5-1.4-11.5-34.5-10.6-56.9
			c0.2-6.3,1.3-9.2,3.6-9.5c3.8-0.6,8.1,8.3,11.2,16.4c3-0.9,10.3-2.9,15.7-3.5c6.2-0.7,15.4-0.3,18.9-0.2
			c1.1-7.6,3.2-16.1,6.7-16.4c2.4-0.2,3.8,2.7,4.7,5.4c3.3,9.5,4.1,29.5,4.2,33.7l9.9-0.8l-0.1,1.7c0,0.4-0.4,8.8-3.3,17.5
			c-3,8.9-6.4,13.6-6.5,13.8l-0.4,0.5l-0.6,0.1c-0.3,0-7.8,1.1-25.3,1.5C240.8,214.3,238.6,214.3,236.5,214.3z M217.8,209.2
			c2,0.7,9.4,3.4,25.1,2.7c14.5-0.4,22.3-1.9,24.5-2.1c0.9-1.4,4.1-4.8,6.4-11.6c2-6.1,2.2-13,2.5-15.9c0,0-29.4,3-39.2,2.7
			c-1.6-0.1-4.4-0.6-4.4-0.6s2.4-1.5,4.2-1.8c7.4-1.2,29.7-2.5,29.7-2.5c-0.1-3.8-1.8-25-4.1-33c-0.2-0.9-1.2-3.3-1.6-3.3
			c-1.7-0.1-3.2,8-4.1,15.1l-0.2,1.4l-1.4-0.1c-0.1,0-12.4-0.7-19.8,0.1c-6.6,0.7-16.4,3.7-16.5,3.7l-1.4,0.4l-0.5-1.3
			c-2.9-7.8-6.6-16.2-8.4-15.7c-0.4,0.1-1.7,5-1.7,6.7C206.7,168.2,216.7,205.7,217.8,209.2z"/>
		<path class="st2" d="M231.7,177.9c-1.9,0-3.5-1.3-3.6-3.1c-0.1-1.9,1.4-3.5,3.4-3.6c2-0.1,3.7,1.3,3.9,3.1v0
			c0.1,1.9-1.4,3.5-3.4,3.6C231.8,177.9,231.8,177.9,231.7,177.9z M231.7,174.2C231.7,174.2,231.7,174.2,231.7,174.2
			c-0.4,0-0.7,0.3-0.7,0.4s0.3,0.4,0.7,0.3c0.4,0,0.6-0.3,0.6-0.4l0,0C232.3,174.4,232.1,174.2,231.7,174.2z"/>
		<path class="st2" d="M255.6,175.7c-1.9,0-3.4-1.3-3.6-3.1c-0.1-0.9,0.3-1.8,1-2.5c0.6-0.6,1.5-1,2.4-1.1c2-0.1,3.7,1.3,3.9,3.1
			l0,0c0.1,0.9-0.3,1.8-1,2.5c-0.6,0.6-1.5,1-2.4,1.1C255.8,175.7,255.7,175.7,255.6,175.7z M255.6,172
			C255.6,172,255.6,172,255.6,172c-0.3,0-0.4,0.1-0.6,0.2c0,0-0.1,0.1-0.1,0.2c0,0.2,0.3,0.4,0.7,0.3c0.2,0,0.4-0.1,0.5-0.2
			c0,0,0.1-0.1,0.1-0.2C256.2,172.1,256,172,255.6,172z"/>
		<path class="st2" d="M231.5,171.7c-0.3,0-0.8,0-1.1,0c-0.9-0.1-3.4-0.7-3.4-1.5c0-0.8,2.1-1.4,2.9-1.5c3.6-0.2,8.7,0.7,14.4,0.2
			c5.3-0.5,7.7-1.5,10.2-2c1.1-0.2,4.1-0.4,4.3,0.4s-1.8,1.9-2.6,2.1c-0.3,0.1-6.4,1.4-11.8,1.9
			C240.5,171.6,234.7,171.6,231.5,171.7z"/>
		<path class="st1" d="M255.9,181.4c0,0,2.1-7,4.2-7.3c1.8-0.2,4.8,5.3,4.8,5.3c0.6,0.6,0.2,1.1-0.4,1.7c-0.6,0.6-1.6,0.5-2.1-0.1
			c0,0-1.1-3.2-1.7-3.1c-0.7,0.1-1.3,3.7-1.3,3.7C259.1,182.1,255.5,182.2,255.9,181.4z"/>
		<path class="st2" d="M202,185.3c-0.8-0.1-3.2-0.6-3-1.4c0.2-0.8,2.5-0.5,3.3-0.4c2.5,0.4,9.9,0.8,9.9,0.8l0.6,3
			C212.9,187.2,204.8,185.8,202,185.3z"/>
		<path class="st2" d="M199.8,194.2c-0.6-0.5,3.5-2,4.3-2.2c2.3-0.6,9.2-2.7,9.2-2.7l0.6,3c0,0-6.9,2-9.2,2.2
			C203.5,194.7,200.7,195,199.8,194.2z"/>
		<path class="st2" d="M201.6,202.7c-0.8-0.3,2.3-2.7,3-3.1l9.8-5.4l0.7,3c0,0-6.6,3.3-8.8,4.3C205.1,202.1,202.7,203.2,201.6,202.7
			z"/>
	</g>
</g>
</svg>
